<?xml version="1.0" encoding="UTF-8"?>
<svg version="1.1" xmlns="http://www.w3.org/2000/svg" width="512" height="512">
<path d="M0 0 C1.22640544 -0.01064158 1.22640544 -0.01064158 2.47758675 -0.02149814 C5.20933577 -0.03905976 7.93965848 -0.02098327 10.67138672 -0.00291443 C12.6329615 -0.00805395 14.59453166 -0.01533548 16.55609131 -0.02459717 C21.87845706 -0.04311502 27.20032201 -0.03016997 32.52266693 -0.01050687 C38.09324223 0.00587763 43.66378576 -0.00293299 49.234375 -0.00802612 C58.58911133 -0.01254729 67.94364772 0.0033243 77.29833984 0.03126526 C88.11275014 0.06331716 98.92679983 0.06330143 109.74123573 0.04605049 C120.14554998 0.03018527 130.54973206 0.03691897 140.95404053 0.0539875 C145.38136311 0.06085906 149.80857978 0.05982444 154.23590088 0.05244255 C159.44972723 0.04477997 164.66314332 0.05690524 169.87689972 0.08429146 C171.79009025 0.09117661 173.70331909 0.09127187 175.61650848 0.08407593 C178.22884591 0.07538272 180.83991686 0.09133453 183.45214844 0.11352539 C184.20876833 0.10528462 184.96538822 0.09704386 185.74493599 0.08855337 C190.85654575 0.16866324 193.79239568 1.393884 197.72607422 4.62818909 C199.22774708 7.63153482 198.8685074 10.71908788 198.86308861 14.01307392 C198.86706635 15.1742012 198.86706635 15.1742012 198.87112445 16.3587856 C198.87884821 18.98003694 198.87937779 21.60124168 198.87997437 24.22250366 C198.88398695 26.1098258 198.88842483 27.99714708 198.89325392 29.8844673 C198.9052478 35.09221572 198.91087436 40.29995486 198.91543508 45.50771439 C198.92138044 51.11587709 198.93299284 56.72402864 198.94372559 62.33218384 C198.96827265 75.88580696 198.98287937 89.43943378 198.99578565 102.9930723 C198.99949567 106.81866903 199.00346905 110.64426539 199.00753832 114.46986175 C199.03277101 138.20681927 199.05484864 161.94377735 199.06726646 185.68074512 C199.0701879 191.18153702 199.0731554 196.68232889 199.07617188 202.18312073 C199.07654278 202.86653911 199.07691369 203.5499575 199.07729584 204.25408553 C199.08945543 226.41963812 199.12040587 248.58511139 199.1620934 270.75062671 C199.20606723 294.17442028 199.23179725 317.59815277 199.23718703 341.02199382 C199.24060651 353.79502941 199.25242491 366.56793983 199.28528976 379.34093666 C199.31322434 390.21582134 199.32431862 401.0905552 199.3130943 411.96547297 C199.30789091 417.51748237 199.3109033 423.06917561 199.33555984 428.62113953 C199.35792641 433.69967754 199.35741105 438.77766999 199.33835597 443.85621675 C199.33553821 445.69742556 199.34125214 447.53867038 199.35616891 449.37982092 C199.37516123 451.87581274 199.36356525 454.36983625 199.34410667 456.86578083 C199.35695589 457.58686428 199.36980512 458.30794773 199.38304371 459.05088219 C199.31598673 462.94399664 198.82708163 464.50587965 196.31244719 467.5508396 C192.72455407 470.43260028 190.58103478 470.80832983 185.99169922 471.15162659 C182.42874362 470.32846098 180.11359479 468.28801362 177.72607422 465.62818909 C175.79979717 462.31943133 174.38817836 458.84064942 172.95263672 455.29615784 C172.51628403 454.25785324 172.07993134 453.21954865 171.63035583 452.14978027 C170.18890905 448.7111461 168.77040629 445.26350304 167.35107422 441.81568909 C166.33396194 439.3805083 165.31496634 436.94611336 164.29418945 434.51246643 C162.70241322 430.71651533 161.1119972 426.92002963 159.52922058 423.12031555 C154.52768023 411.11497507 149.41312117 399.15923976 144.27532959 387.21159363 C142.27119925 382.54970129 140.27160091 377.8858707 138.27197266 373.2220459 C136.76244362 369.70133106 135.25236954 366.18085042 133.7421875 362.66041565 C129.23393436 352.15009351 124.72965357 341.63806894 120.22506714 331.12617493 C117.72556499 325.29344349 115.22580666 319.46082184 112.72607422 313.62818909 C111.72607299 311.29485628 110.72607299 308.96152295 109.72607422 306.62818909 C109.23107422 305.47318909 108.73607422 304.31818909 108.22607422 303.12818909 C31.7260742 124.62818905 31.7260742 124.62818905 30.22640991 121.12896729 C29.22529584 118.79303785 28.22417686 116.45711053 27.22305298 114.1211853 C24.74005811 108.32758945 22.25714565 102.53395831 19.77441406 96.74024963 C15.07166453 85.76614842 10.36802771 74.79242945 5.66168213 63.81987 C3.70143179 59.24964717 1.74157349 54.67925626 -0.21819687 50.10882759 C-1.55854314 46.98305842 -2.89912005 43.85738858 -4.24023438 40.73194885 C-5.71815405 37.28743876 -7.19533731 33.84261373 -8.67236328 30.39772034 C-9.11075531 29.37652603 -9.54914734 28.35533173 -10.00082397 27.30319214 C-10.40467316 26.36090256 -10.80852234 25.41861298 -11.22460938 24.44776917 C-11.57413666 23.63294571 -11.92366394 22.81812225 -12.28378296 21.97860718 C-15.60843097 14.08650045 -15.60843097 14.08650045 -15.27392578 10.12818909 C-15.23267578 9.39600159 -15.19142578 8.66381409 -15.14892578 7.90943909 C-12.51078469 1.0314284 -6.63710675 -0.10382359 0 0 Z " fill="#F44335" transform="translate(313.27392578125,20.371810913085938)"/>
<path d="M0 0 C0.81418593 -0.00438225 1.62837185 -0.00876451 2.46723008 -0.01327956 C5.21092341 -0.02669461 7.9545846 -0.03285248 10.69830322 -0.03897095 C12.6592829 -0.04686978 14.62026112 -0.05513859 16.58123779 -0.06375122 C23.03463345 -0.08999644 29.48803568 -0.10528124 35.94146729 -0.11953735 C38.16085057 -0.12489598 40.38023381 -0.13027349 42.599617 -0.13566971 C51.82999483 -0.15730199 61.0603709 -0.17603961 70.29076767 -0.1872921 C83.53026619 -0.20353667 96.76947145 -0.23672297 110.0088594 -0.29369295 C119.31167667 -0.33236217 128.61441541 -0.35192122 137.91731095 -0.35721266 C143.47655974 -0.36087021 149.03549594 -0.37293452 154.5946579 -0.4053154 C159.82483164 -0.43534279 165.05450277 -0.44172679 170.28474426 -0.42993164 C172.20441306 -0.42971046 174.12410481 -0.43805213 176.04369354 -0.45558548 C178.66515286 -0.47822626 181.28478186 -0.47000654 183.90625 -0.45410156 C184.66559837 -0.46798365 185.42494674 -0.48186574 186.20730567 -0.49616849 C191.97277616 -0.4100038 194.32093193 1.18891905 198.20709229 5.15390015 C200.35083912 9.85528571 199.31573465 14.55718273 197.59014893 19.24398804 C196.78682297 21.13058018 195.96104232 23.00771329 195.11724854 24.8765564 C194.44786255 26.42552361 194.44786255 26.42552361 193.76495361 28.00578308 C192.28534011 31.41787905 190.77742573 34.81669229 189.26959229 38.21640015 C188.21663756 40.63166754 187.16581276 43.0478645 186.11700439 45.4649353 C184.20274563 49.87307628 182.28153976 54.27806143 180.35112858 58.67915344 C175.41058145 69.94357912 170.57972148 81.25445286 165.7492981 92.56646729 C163.25284441 98.40803608 160.74726846 104.24568842 158.24224854 110.08358765 C152.72723606 122.93976274 147.21615721 135.79762113 141.70608521 148.65591431 C139.20658305 154.48864575 136.70682473 160.3212674 134.20709229 166.15390015 C133.20709106 168.48723295 132.20709106 170.82056629 131.20709229 173.15390015 C53.20709228 355.15390015 53.20709228 355.15390015 51.70741272 358.65313721 C50.70632988 360.98900736 49.70526179 363.32488384 48.70420837 365.6607666 C46.22089619 371.45533827 43.7373367 377.24980367 41.25323486 383.04403687 C36.55383353 394.00625387 31.85708106 404.96958828 27.16848755 415.93643188 C25.21807801 420.49847843 23.26648801 425.06001969 21.31463432 429.62144852 C19.98082881 432.73877233 18.64771549 435.85638832 17.31622314 438.97470093 C15.84788882 442.41274063 14.37733617 445.84982358 12.90631104 449.28671265 C12.47308029 450.30274567 12.03984955 451.31877869 11.5934906 452.36560059 C5.20901743 467.26389895 5.20901743 467.26389895 0.20709229 470.15390015 C-4.80507649 470.79036602 -6.77841916 470.70725754 -11.23040771 468.27890015 C-13.79290771 466.15390015 -13.79290771 466.15390015 -14.79290771 464.15390015 C-14.89389896 461.68308614 -14.93398743 459.24025228 -14.9299221 456.76901531 C-14.93257393 455.99493046 -14.93522576 455.2208456 -14.93795794 454.42330363 C-14.94568171 451.80205229 -14.94621128 449.18084756 -14.94680786 446.55958557 C-14.95082045 444.67226343 -14.95525833 442.78494216 -14.96008742 440.89762193 C-14.9720813 435.68987351 -14.97770786 430.48213437 -14.98226857 425.27437484 C-14.98821393 419.66621214 -14.99982633 414.05806059 -15.01055908 408.4499054 C-15.03510614 394.89628227 -15.04971287 381.34265545 -15.06261915 367.78901693 C-15.06632916 363.96342021 -15.07030254 360.13782385 -15.07437181 356.31222749 C-15.09960451 332.57526996 -15.12168214 308.83831189 -15.13409996 285.10134411 C-15.13702139 279.60055222 -15.13998889 274.09976035 -15.14300537 268.59896851 C-15.14337628 267.91555012 -15.14374719 267.23213173 -15.14412934 266.5280037 C-15.15628893 244.36245111 -15.18723936 222.19697785 -15.2289269 200.03146253 C-15.27290073 176.60766896 -15.29863075 153.18393647 -15.30402052 129.76009542 C-15.30744 116.98705982 -15.31925841 104.2141494 -15.35212326 91.44115257 C-15.38005784 80.5662679 -15.39115211 69.69153404 -15.3799278 58.81661626 C-15.3747244 53.26460687 -15.37773679 47.71291363 -15.40239334 42.16094971 C-15.4247599 37.08241169 -15.42424455 32.00441924 -15.40518947 26.92587248 C-15.40237171 25.08466367 -15.40808563 23.24341885 -15.42300241 21.40226831 C-15.44199472 18.90627649 -15.43039874 16.41225298 -15.41094017 13.9163084 C-15.42378939 13.19522495 -15.43663861 12.47414151 -15.4498772 11.73120704 C-15.38282023 7.8380926 -14.89391512 6.27620958 -12.37928069 3.23124963 C-8.20736118 -0.11959533 -5.17423032 0.00335235 0 0 Z " fill="#F44236" transform="translate(14.79290771484375,20.846099853515625)"/>
<path d="M0 0 C0.61875 -0.01289063 1.2375 -0.02578125 1.875 -0.0390625 C6.61701595 1.44281749 9.49629952 4.71583922 11.82006836 8.91015625 C12.34389371 10.16219929 12.84963657 11.42191646 13.33984375 12.6875 C13.62305481 13.37772751 13.90626587 14.06795502 14.19805908 14.77909851 C15.12732362 17.05489383 16.03226634 19.33955181 16.9375 21.625 C17.59586874 23.25038186 18.25581195 24.87512676 18.91723633 26.49926758 C20.28831738 29.87418393 21.64943427 33.25285628 23.00195312 36.63525391 C24.85440056 41.26760091 26.72774651 45.8911604 28.609375 50.51171875 C30.73285238 55.73004719 32.85091157 60.95049759 34.96107483 66.17422485 C39.94199661 78.50425205 44.97019288 90.81485053 50 103.125 C55.85231094 117.45069326 61.69358424 131.78064122 67.5 146.125 C73.99792029 162.17611293 80.53854685 178.20963401 87.08569336 194.24072266 C93.58589508 210.15725378 100.07675753 226.07757159 106.5625 242 C107.00763947 243.09279266 107.45277893 244.18558533 107.91140747 245.31149292 C108.56253006 246.90998581 108.56253006 246.90998581 109.22680664 248.54077148 C109.65674423 249.59548141 110.08668182 250.65019135 110.52964783 251.73686218 C111.38225477 253.83172399 112.23259544 255.92750971 113.08058167 258.02424622 C115.36579479 263.66568701 117.69971817 269.2812143 120.09716797 274.87597656 C120.60722885 276.08283112 121.11728973 277.28968567 121.64280701 278.53311157 C122.62075605 280.84492225 123.6123355 283.15103331 124.62001038 285.45004272 C127.27450356 291.77208881 129.35976475 297.70958374 128 304.625 C125.80977082 307.44924288 124.16982793 309.04008603 121 310.625 C118.102924 310.74450883 115.22917318 310.80339769 112.33105469 310.81787109 C111.43331833 310.82604858 110.53558197 310.83422607 109.61064148 310.84265137 C106.63105948 310.86752264 103.6515252 310.8840264 100.671875 310.8984375 C99.65516975 310.90376118 98.63846451 310.90908485 97.59095001 310.91456985 C92.20891574 310.9413098 86.82690474 310.96068144 81.44482422 310.97509766 C75.88502593 310.99174163 70.32582085 311.03651517 64.7662468 311.0874691 C60.49226195 311.12112435 56.21841813 311.13267327 51.94431305 311.13832474 C49.89498617 311.14504265 47.84566874 311.16027869 45.79647064 311.18421555 C42.92599676 311.21583076 40.05712568 311.21590917 37.18652344 311.20849609 C36.3416185 311.22490143 35.49671356 311.24130676 34.62620544 311.25820923 C30.48739736 311.21451113 27.8174719 310.90539461 24.52613831 308.27444458 C21.73413308 305.34615554 20.54827525 303.07043435 19.16796875 299.28125 C18.93380249 298.65515839 18.69963623 298.02906677 18.45837402 297.38400269 C17.68452232 295.30347764 16.93632746 293.21464798 16.1875 291.125 C15.64419756 289.65116716 15.09898257 288.17803814 14.55200195 286.70556641 C13.35489304 283.47745492 12.16713362 280.24609061 10.984375 277.01269531 C7.6786665 268.00392902 4.2522932 259.040141 0.84976196 250.06762695 C-1.01792868 245.13812024 -2.87825307 240.20583951 -4.73828125 235.2734375 C-5.0688855 234.3969455 -5.39948975 233.52045349 -5.7401123 232.61740112 C-6.49350016 230.61996876 -7.24676558 228.62249023 -8 226.625 C-8.98892242 226.61913376 -9.97784485 226.61326752 -10.99673462 226.60722351 C-20.32505992 226.5499633 -29.65315285 226.47718439 -38.98124123 226.38928509 C-43.77670225 226.34459387 -48.57207857 226.30533495 -53.36767578 226.27856445 C-57.99735197 226.25251908 -62.62670196 226.21210785 -67.25617599 226.16181374 C-69.02072461 226.14515338 -70.78532963 226.13363393 -72.54994583 226.12738609 C-75.02534273 226.11773588 -77.49990667 226.08966633 -79.97509766 226.05737305 C-81.0648288 226.05952568 -81.0648288 226.05952568 -82.17657471 226.0617218 C-86.82739482 225.9761416 -90.10002964 225.18635028 -94 222.625 C-96.80538897 218.63854932 -96.52656318 214.31109646 -96 209.625 C-95.18654572 206.59043677 -94.0033637 203.79003215 -92.73046875 200.921875 C-92.38293549 200.10331024 -92.03540222 199.28474548 -91.67733765 198.44137573 C-90.5289308 195.74594069 -89.35823786 193.06080169 -88.1875 190.375 C-87.36743837 188.46081729 -86.54902911 186.54592594 -85.73217773 184.63037109 C-84.02333646 180.62822069 -82.3063034 176.62973607 -80.58300781 172.63378906 C-78.10890595 166.88960217 -75.66889434 161.13153497 -73.2421875 155.3671875 C-72.85615356 154.45025116 -72.47011963 153.53331482 -72.0723877 152.58859253 C-71.2933071 150.73759481 -70.51433566 148.88655113 -69.73547363 147.03546143 C-67.75793752 142.33940484 -65.7734283 137.64629877 -63.7890625 132.953125 C-63.39416626 132.01896759 -62.99927002 131.08481018 -62.59240723 130.12234497 C-60.99577446 126.34542508 -59.39894205 122.56858961 -57.80212402 118.79174805 C-55.01309487 112.19484553 -52.22486104 105.59760752 -49.4375 99 C-48.850896 97.61172501 -48.850896 97.61172501 -48.25244141 96.19540405 C-43.10226721 84.00455775 -37.97604545 71.80395203 -32.87426758 59.59277344 C-31.35345642 55.95292625 -29.829934 52.3142366 -28.3034668 48.67675781 C-27.5734027 46.9368499 -26.84334082 45.19694106 -26.11328125 43.45703125 C-25.76112045 42.61796234 -25.40895966 41.77889343 -25.04612732 40.91439819 C-23.1010504 36.27372944 -21.17489691 31.62599164 -19.27085876 26.96833801 C-18.44519578 24.95317083 -17.61264855 22.94101738 -16.77709961 20.92993164 C-15.79722745 18.56868255 -14.82948588 16.20234175 -13.87719727 13.82983398 C-11.26489333 7.58946651 -8.01699093 -0.16702064 0 0 Z " fill="#F44335" transform="translate(256,180.375)"/>
</svg>
