<?xml version="1.0" encoding="UTF-8"?>
<svg version="1.1" xmlns="http://www.w3.org/2000/svg" width="512" height="512">
<path d="M0 0 C6.54373844 5.32105266 10.25500178 13.71274043 14.17706299 20.99920654 C15.91143415 24.21760237 17.67043611 27.42250026 19.42773438 30.62841797 C19.96024307 31.60109116 19.96024307 31.60109116 20.50350952 32.59341431 C24.02937075 39.02193374 27.64065059 45.39799985 31.31054688 51.74560547 C31.86548828 52.71820313 32.42042969 53.69080078 32.9921875 54.69287109 C38.43339344 64.04804291 42.03626991 69.52705085 52.68554688 72.37060547 C56.87713796 73.320943 61.08540061 74.16335046 65.30626488 74.97308159 C67.39770603 75.37519555 69.48724664 75.78611689 71.57649231 76.19947815 C77.50969994 77.37226781 83.4451448 78.53323032 89.38354492 79.67944336 C93.03372104 80.38462908 96.68110043 81.10299875 100.32708168 81.82954597 C101.70829838 82.10206438 103.0905121 82.36958213 104.47371483 82.63183403 C106.40894612 82.99905753 108.34067963 83.38456883 110.2722168 83.77075195 C111.36870041 83.9837645 112.46518402 84.19677704 113.59489441 84.41624451 C119.44805314 86.22363834 124.67963624 89.95323667 127.68554688 95.37060547 C129.82071286 101.53347093 130.39287957 107.51979015 128.17773438 113.71435547 C125.14174381 119.11873658 120.62194147 123.37768363 116.28320312 127.74462891 C113.8465033 130.22452206 111.52226902 132.79613543 109.18554688 135.37060547 C108.27996477 136.36080004 107.3737096 137.35037946 106.46679688 138.33935547 C105.78617187 139.08185547 105.78617187 139.08185547 105.09179688 139.83935547 C103.13290626 141.97236969 101.16865618 144.10039998 99.203125 146.22729492 C98.19542543 147.31848311 97.18890429 148.41076079 96.18359375 149.50415039 C93.68641386 152.21824633 91.1736878 154.9136521 88.62304688 157.57763672 C80.32564759 166.29350645 76.42745704 171.55277029 76.55883789 183.86575317 C76.74908103 189.12800109 77.33055643 194.30264843 77.99804688 199.52294922 C78.19781128 201.1768441 78.19781128 201.1768441 78.40161133 202.864151 C78.96342626 207.51481931 79.54290646 212.16323264 80.12207031 216.81176758 C84.3823022 251.22449102 84.3823022 251.22449102 79.68554688 259.37060547 C77.74804687 261.45263672 77.74804687 261.45263672 75.68554688 263.18310547 C75.00492188 263.76705078 74.32429687 264.35099609 73.62304688 264.95263672 C69.02489346 268.31781755 63.21509379 268.26207201 57.72186279 267.74108887 C50.33237687 266.39666002 43.42315223 262.27976916 36.74804688 258.99560547 C35.00821918 258.16418104 33.26707806 257.33549971 31.5246582 256.50952148 C27.31265783 254.50819827 23.11229598 252.48392409 18.91589355 250.45013428 C13.91916077 248.03162372 8.90323449 245.65627927 3.87304688 243.30810547 C3.05908447 242.90994629 2.24512207 242.51178711 1.40649414 242.1015625 C-4.66246049 239.25913257 -10.8806465 237.25437562 -17.57592773 238.93994141 C-20.22671439 239.95910819 -22.75370526 241.141532 -25.31445312 242.37060547 C-26.56141027 242.93672147 -27.80990099 243.49946672 -29.05957031 244.05957031 C-32.67781813 245.68565421 -36.28315462 247.33848547 -39.88592529 248.99853516 C-42.22401733 250.07400421 -44.5649513 251.14305195 -46.90673828 252.21044922 C-53.50098475 255.21925525 -60.08575715 258.23295306 -66.59570312 261.42138672 C-76.83903982 266.38948039 -85.22330006 269.76798415 -96.68945312 266.37060547 C-101.21405422 262.92329035 -105.49248666 258.83650486 -107.31445312 253.37060547 C-108.42542152 240.02963766 -105.95922804 226.50953995 -104.31445312 213.30810547 C-103.74295898 208.71409804 -103.18207869 204.11895987 -102.62695312 199.52294922 C-102.49571045 198.49652817 -102.36446777 197.47010712 -102.22924805 196.4125824 C-99.91985347 180.6503479 -99.91985347 180.6503479 -105.31445312 166.37060547 C-107.22402383 164.27049192 -109.20456304 162.29696827 -111.26367188 160.34326172 C-113.10933189 158.56791256 -114.77878711 156.75465829 -116.43945312 154.80810547 C-119.8774264 150.81283515 -123.4615649 146.96641752 -127.06445312 143.12060547 C-128.28973036 141.81072537 -129.51499079 140.50082955 -130.74023438 139.19091797 C-131.64249756 138.22653809 -131.64249756 138.22653809 -132.56298828 137.24267578 C-133.14097168 136.62489258 -133.71895508 136.00710938 -134.31445312 135.37060547 C-134.84216309 134.80696289 -135.36987305 134.24332031 -135.91357422 133.66259766 C-154.24295329 114.04392353 -154.24295329 114.04392353 -154.33789062 105.18310547 C-153.89262625 98.24635519 -151.70310894 93.62912249 -146.58544922 88.7902832 C-143.45615402 86.26934025 -140.61483255 85.29652358 -136.66601562 84.40576172 C-135.99365875 84.25083755 -135.32130188 84.09591339 -134.62857056 83.93629456 C-132.19549155 83.38808717 -129.75681122 82.87588431 -127.31445312 82.37060547 C-125.82069153 82.06083771 -125.82069153 82.06083771 -124.29675293 81.74481201 C-114.86143077 79.80347753 -105.41248004 77.93001054 -95.95947266 76.0769043 C-92.35489469 75.36858215 -88.75256731 74.64961881 -85.15039062 73.92919922 C-84.05036713 73.71661972 -82.95034363 73.50404022 -81.81698608 73.28501892 C-72.68098963 71.44640176 -66.70763743 69.12269018 -61.31445312 61.37060547 C-58.99326048 57.5248953 -56.83007948 53.60446022 -54.7086792 49.64660645 C-53.32042138 47.057309 -51.91308111 44.47855755 -50.50674438 41.89904785 C-49.7960185 40.59509865 -49.08619759 39.29065577 -48.37728882 37.98571777 C-45.21137428 32.16113621 -41.97389286 26.37923134 -38.68945312 20.62060547 C-38.22974121 19.80769043 -37.7700293 18.99477539 -37.29638672 18.15722656 C-27.11990935 0.34932274 -27.11990935 0.34932274 -19.12695312 -2.94189453 C-12.51952632 -4.13339773 -5.70598575 -3.89125433 0 0 Z " fill="#FFBA32" transform="translate(212.314453125,187.62939453125)"/>
<path d="M0 0 C4.8143755 4.57365673 6.75156236 7.6837462 7 14.375 C7.06799406 20.90243012 4.0592446 24.85275484 -0.32362366 29.45030594 C-1.42689493 30.564475 -2.5355949 31.67328571 -3.64868164 32.77764893 C-4.26180993 33.3938972 -4.87493822 34.01014547 -5.50664616 34.64506793 C-7.55309447 36.69946486 -9.6065825 38.74667282 -11.66015625 40.79394531 C-13.13248477 42.26898502 -14.60438772 43.74444962 -16.07589722 45.2203064 C-20.06699669 49.22051523 -24.06438661 53.2143819 -28.06321335 57.20686436 C-32.24704207 61.38562752 -36.42598661 65.56927045 -40.60571289 69.75213623 C-47.62319561 76.77325616 -54.64488195 83.79015141 -61.66894531 90.8046875 C-69.79340094 98.9182506 -77.91061501 107.03900505 -86.02412128 115.16351628 C-92.98952998 122.13799472 -99.95882089 129.10857582 -106.93138409 136.07590175 C-111.0963167 140.23771404 -115.25988074 144.40087128 -119.41995239 148.56754303 C-123.32897332 152.48233249 -127.24283759 156.39221372 -131.16052628 160.2983284 C-132.59899538 161.73414866 -134.03575721 163.17168164 -135.47069931 164.61102676 C-137.42632557 166.57210071 -139.38797961 168.5269376 -141.35131836 170.48028564 C-141.92058076 171.05400949 -142.48984316 171.62773333 -143.07635593 172.21884274 C-147.81180095 176.90751244 -150.72032436 178.66533492 -157.375 178.75 C-162.58266907 178.64863418 -165.60580633 178.07448398 -169.5 174.375 C-173.91415841 169.72851746 -173.96758261 165.48706934 -174.03125 159.375 C-172.88612783 152.90842772 -167.84751103 148.43330603 -163.35131836 143.97235107 C-162.73819007 143.3561028 -162.12506178 142.73985453 -161.49335384 142.10493207 C-159.44690553 140.05053514 -157.3934175 138.00332718 -155.33984375 135.95605469 C-153.86751523 134.48101498 -152.39561228 133.00555038 -150.92410278 131.5296936 C-146.93300331 127.52948477 -142.93561339 123.5356181 -138.93678665 119.54313564 C-134.75295793 115.36437248 -130.57401339 111.18072955 -126.39428711 106.99786377 C-119.37680439 99.97674384 -112.35511805 92.95984859 -105.33105469 85.9453125 C-97.20659906 77.8317494 -89.08938499 69.71099495 -80.97587872 61.58648372 C-74.01047002 54.61200528 -67.04117911 47.64142418 -60.06861591 40.67409825 C-55.9036833 36.51228596 -51.74011926 32.34912872 -47.58004761 28.18245697 C-43.67102668 24.26766751 -39.75716241 20.35778628 -35.83947372 16.4516716 C-34.40100462 15.01585134 -32.96424279 13.57831836 -31.52930069 12.13897324 C-29.57367443 10.17789929 -27.61202039 8.2230624 -25.64868164 6.26971436 C-25.07941924 5.69599051 -24.51015684 5.12226667 -23.92364407 4.53115726 C-17.08934464 -2.23563498 -9.06156432 -4.20715486 0 0 Z " fill="#FFBA33" transform="translate(449.5,57.625)"/>
<path d="M0 0 C4.8846525 2.26787438 7.73212562 5.1153475 10 10 C10.83441855 16.19853781 10.9996907 21.01539704 7.34643555 26.27788544 C4.60600016 29.78295012 1.41604579 32.8602776 -1.734375 35.99316406 C-2.50881958 36.77111328 -3.28326416 37.5490625 -4.08117676 38.35058594 C-6.63245604 40.91064009 -9.19094848 43.46334177 -11.75 46.015625 C-13.52861304 47.79558563 -15.30692913 49.57584304 -17.08496094 51.35638428 C-20.80730123 55.08166986 -24.53313713 58.80342379 -28.26171875 62.52246094 C-32.56897489 66.81881831 -36.86895738 71.12235463 -41.16526413 75.42965913 C-45.30619558 79.58076448 -49.45273688 83.72622405 -53.60168457 87.8693161 C-55.36383952 89.63013593 -57.12450736 91.3924453 -58.88366699 93.15625763 C-61.33951722 95.61717776 -63.80167151 98.07161085 -66.265625 100.52441406 C-67.3567157 101.62157745 -67.3567157 101.62157745 -68.46984863 102.74090576 C-69.14269897 103.40811646 -69.81554932 104.07532715 -70.50878906 104.76275635 C-71.08985413 105.34306736 -71.67091919 105.92337837 -72.26959229 106.52127457 C-76.88330699 110.46393919 -81.20747999 110.42692253 -87.0859375 110.3125 C-92.38740101 109.74397844 -94.83972495 107.22134216 -98.375 103.5 C-100.72325726 98.44221514 -100.97097307 93.48314207 -100 88 C-96.86686324 82.56599678 -92.69289133 78.40946139 -88.265625 74.00683594 C-87.49118042 73.22888672 -86.71673584 72.4509375 -85.91882324 71.64941406 C-83.36754396 69.08935991 -80.80905152 66.53665823 -78.25 63.984375 C-76.47138696 62.20441437 -74.69307087 60.42415696 -72.91503906 58.64361572 C-69.19269877 54.91833014 -65.46686287 51.19657621 -61.73828125 47.47753906 C-57.43102511 43.18118169 -53.13104262 38.87764537 -48.83473587 34.57034087 C-44.69380442 30.41923552 -40.54726312 26.27377595 -36.39831543 22.1306839 C-34.63616048 20.36986407 -32.87549264 18.6075547 -31.11633301 16.84374237 C-28.66048278 14.38282224 -26.19832849 11.92838915 -23.734375 9.47558594 C-23.0069812 8.74414368 -22.2795874 8.01270142 -21.53015137 7.25909424 C-20.85730103 6.59188354 -20.18445068 5.92467285 -19.49121094 5.23724365 C-18.91014587 4.65693264 -18.32908081 4.07662163 -17.73040771 3.47872543 C-12.47130211 -1.01546004 -6.61448755 -0.70932842 0 0 Z " fill="#FFBA33" transform="translate(330,56)"/>
<path d="M0 0 C2.73085928 0.6301983 4.10650805 2.10236642 5.71875 4.3359375 C6.70850034 5.9998212 7.62968648 7.70451545 8.5234375 9.421875 C11.9215328 16.44892603 11.9215328 16.44892603 18.16796875 20.51953125 C19.76343689 20.87377461 21.36939842 21.18233262 22.98046875 21.45703125 C25.10892736 21.94209716 27.23390745 22.44263581 29.35546875 22.95703125 C30.35320312 23.17359375 31.3509375 23.39015625 32.37890625 23.61328125 C35.10164588 24.49633194 36.25118984 25.21516479 37.98046875 27.45703125 C39.36940096 31.51698694 38.82810325 33.66128666 36.98046875 37.45703125 C34.88671875 40.02734375 34.88671875 40.02734375 32.48046875 42.58203125 C27.84114529 47.04247777 27.84114529 47.04247777 25.81689453 52.84545898 C25.87079346 54.22906616 25.87079346 54.22906616 25.92578125 55.640625 C25.95027344 56.65060547 25.97476563 57.66058594 26 58.70117188 C26.07019263 60.82644868 26.14829169 62.95147938 26.234375 65.07617188 C26.25628906 66.08744141 26.27820313 67.09871094 26.30078125 68.140625 C26.33445801 69.06415771 26.36813477 69.98769043 26.40283203 70.93920898 C25.84439079 74.26822897 24.59195919 75.38950399 21.98046875 77.45703125 C15.81791222 79.30432038 12.45962635 77.65642191 7.10546875 74.83203125 C0.82309443 71.62652022 0.82309443 71.62652022 -5.95703125 72.26953125 C-8.0292127 73.25149907 -8.0292127 73.25149907 -10.01953125 74.45703125 C-19.84410055 79.39442127 -19.84410055 79.39442127 -26.01953125 77.45703125 C-28.23046875 76.09765625 -28.23046875 76.09765625 -30.01953125 73.45703125 C-30.43441198 68.69010607 -29.96048163 63.90171273 -29.59960938 59.140625 C-29.37035261 53.5292928 -29.56926083 50.24896213 -33.3515625 45.91796875 C-34.55424 44.74350979 -35.77596023 43.58810071 -37.01953125 42.45703125 C-40.56833964 38.75741403 -43.01953125 35.80234005 -43.01953125 30.45703125 C-41.41541277 26.92797058 -40.27793763 25.62930217 -37.01953125 23.45703125 C-34.53607597 22.89196748 -32.08735947 22.39420262 -29.58203125 21.95703125 C-22.39433602 21.08953675 -22.39433602 21.08953675 -16.92358398 16.93994141 C-15.70906197 14.99537464 -14.5739465 13.02169129 -13.45703125 11.01953125 C-12.68903221 9.66431424 -11.91701994 8.31136209 -11.140625 6.9609375 C-10.80474365 6.36095947 -10.4688623 5.76098145 -10.12280273 5.14282227 C-7.36064571 0.92226589 -5.25950212 -0.25866404 0 0 Z " fill="#FFD482" transform="translate(384.01953125,339.54296875)"/>
<path d="M0 0 C2.73085928 0.6301983 4.10650805 2.10236642 5.71875 4.3359375 C6.70850034 5.9998212 7.62968648 7.70451545 8.5234375 9.421875 C11.9215328 16.44892603 11.9215328 16.44892603 18.16796875 20.51953125 C19.76343689 20.87377461 21.36939842 21.18233262 22.98046875 21.45703125 C25.10892736 21.94209716 27.23390745 22.44263581 29.35546875 22.95703125 C30.35320312 23.17359375 31.3509375 23.39015625 32.37890625 23.61328125 C35.10164588 24.49633194 36.25118984 25.21516479 37.98046875 27.45703125 C39.36940096 31.51698694 38.82810325 33.66128666 36.98046875 37.45703125 C34.88671875 40.02734375 34.88671875 40.02734375 32.48046875 42.58203125 C27.84114529 47.04247777 27.84114529 47.04247777 25.81689453 52.84545898 C25.87079346 54.22906616 25.87079346 54.22906616 25.92578125 55.640625 C25.95027344 56.65060547 25.97476563 57.66058594 26 58.70117188 C26.07019263 60.82644868 26.14829169 62.95147938 26.234375 65.07617188 C26.25628906 66.08744141 26.27820313 67.09871094 26.30078125 68.140625 C26.33445801 69.06415771 26.36813477 69.98769043 26.40283203 70.93920898 C25.84439079 74.26822897 24.59195919 75.38950399 21.98046875 77.45703125 C15.81791222 79.30432038 12.45962635 77.65642191 7.10546875 74.83203125 C0.82309443 71.62652022 0.82309443 71.62652022 -5.95703125 72.26953125 C-8.0292127 73.25149907 -8.0292127 73.25149907 -10.01953125 74.45703125 C-19.84410055 79.39442127 -19.84410055 79.39442127 -26.01953125 77.45703125 C-28.23046875 76.09765625 -28.23046875 76.09765625 -30.01953125 73.45703125 C-30.43441198 68.69010607 -29.96048163 63.90171273 -29.59960938 59.140625 C-29.37035261 53.5292928 -29.56926083 50.24896213 -33.3515625 45.91796875 C-34.55424 44.74350979 -35.77596023 43.58810071 -37.01953125 42.45703125 C-40.56833964 38.75741403 -43.01953125 35.80234005 -43.01953125 30.45703125 C-41.41541277 26.92797058 -40.27793763 25.62930217 -37.01953125 23.45703125 C-34.53607597 22.89196748 -32.08735947 22.39420262 -29.58203125 21.95703125 C-22.39433602 21.08953675 -22.39433602 21.08953675 -16.92358398 16.93994141 C-15.70906197 14.99537464 -14.5739465 13.02169129 -13.45703125 11.01953125 C-12.68903221 9.66431424 -11.91701994 8.31136209 -11.140625 6.9609375 C-10.80474365 6.36095947 -10.4688623 5.76098145 -10.12280273 5.14282227 C-7.36064571 0.92226589 -5.25950212 -0.25866404 0 0 Z " fill="#FFD482" transform="translate(128.01953125,91.54296875)"/>
<path d="M0 0 C4.8143755 4.57365673 6.75156236 7.6837462 7 14.375 C7.06836921 20.93844405 4.02049132 24.89374677 -0.38378906 29.51275635 C-1.50597702 30.64670288 -2.63358336 31.77530453 -3.765625 32.89941406 C-4.38401245 33.52130615 -5.0023999 34.14319824 -5.63952637 34.78393555 C-7.67137161 36.82453603 -9.71038853 38.85778918 -11.75 40.890625 C-13.16988887 42.31186196 -14.5894808 43.73339562 -16.00878906 45.1552124 C-18.97787954 48.12724544 -21.95054233 51.09564587 -24.92578125 54.06152344 C-28.73912057 57.86344801 -32.54338314 61.67430867 -36.34503174 65.48791885 C-39.27190407 68.42201542 -42.20351973 71.35133526 -45.13659668 74.27922821 C-46.5414919 75.68278958 -47.94490381 77.0878373 -49.34680176 78.4943924 C-51.30452856 80.45719583 -53.26854786 82.41347802 -55.234375 84.36816406 C-56.10104797 85.24090973 -56.10104797 85.24090973 -56.98522949 86.13128662 C-61.76490563 90.86088008 -64.66137363 92.66458491 -71.375 92.75 C-76.58266907 92.64863418 -79.60580633 92.07448398 -83.5 88.375 C-87.91415841 83.72851746 -87.96758261 79.48706934 -88.03125 73.375 C-86.87709627 66.85742598 -81.76309925 62.34757786 -77.234375 57.85058594 C-76.61598755 57.22869385 -75.9976001 56.60680176 -75.36047363 55.96606445 C-73.32862839 53.92546397 -71.28961147 51.89221082 -69.25 49.859375 C-67.83011113 48.43813804 -66.4105192 47.01660438 -64.99121094 45.5947876 C-62.02212046 42.62275456 -59.04945767 39.65435413 -56.07421875 36.68847656 C-52.26087943 32.88655199 -48.45661686 29.07569133 -44.65496826 25.26208115 C-41.72809593 22.32798458 -38.79648027 19.39866474 -35.86340332 16.47077179 C-34.4585081 15.06721042 -33.05509619 13.6621627 -31.65319824 12.2556076 C-29.69547144 10.29280417 -27.73145214 8.33652198 -25.765625 6.38183594 C-25.18784302 5.80000549 -24.61006104 5.21817505 -24.01477051 4.61871338 C-17.13586111 -2.18811703 -9.14172319 -4.24437148 0 0 Z " fill="#FFBA33" transform="translate(449.5,177.625)"/>
</svg>
